<svg xmlns="http://www.w3.org/2000/svg" viewBox="0 0 32 32"><path d="M16 0C7.167 0 0 7.167 0 16s7.167 16 16 16 16-7.167 16-16S24.833 0 16 0zm0 .667C24.472.667 31.333 7.528 31.333 16S24.472 31.333 16 31.333C7.528 31.333.667 24.472.667 16S7.528.667 16 .667zm1.189 7.225a.334.334 0 0 0-.334.334v.341c-.096.033-.19.072-.281.115l-.239-.239a.332.332 0 0 0-.472 0l-.707.707a.325.325 0 0 0-.097.236.33.33 0 0 0 .097.236l.24.241a2.532 2.532 0 0 0-.115.28h-.343a.334.334 0 0 0-.334.334v1a.334.334 0 0 0 .334.334h.341c.033.097.071.19.116.283l-.24.24a.333.333 0 0 0 0 .47l.707.707a.325.325 0 0 0 .236.097.33.33 0 0 0 .236-.097l.24-.239c.091.045.185.083.281.116v.34a.334.334 0 0 0 .334.334h1a.334.334 0 0 0 .334-.334v-.341c.097-.033.19-.071.281-.116l.241.241a.332.332 0 0 0 .472 0l.707-.707a.325.325 0 0 0 .097-.236.33.33 0 0 0-.097-.236l-.241-.241a2.87 2.87 0 0 0 .117-.281h.34a.334.334 0 0 0 .334-.334v-1a.334.334 0 0 0-.334-.334h-.341a2.36 2.36 0 0 0-.114-.281l.239-.24a.333.333 0 0 0 0-.47l-.707-.707a.325.325 0 0 0-.236-.097.33.33 0 0 0-.236.097l-.24.24a2.887 2.887 0 0 0-.282-.117v-.341a.334.334 0 0 0-.334-.334h-1zm.333.667h.333v.225a.333.333 0 0 0 .26.325c.21.048.411.131.593.247.064.04.14.057.215.049s.145-.042.198-.096l.159-.159.235.235-.157.157a.33.33 0 0 0-.046.412c.113.183.196.385.243.595a.334.334 0 0 0 .325.26h.225v.333h-.225a.33.33 0 0 0-.324.26c-.048.21-.132.411-.247.593a.332.332 0 0 0 .048.412l.159.159-.235.235-.157-.157a.332.332 0 0 0-.413-.047 1.909 1.909 0 0 1-.593.243.334.334 0 0 0-.26.325v.225h-.333v-.225a.33.33 0 0 0-.26-.324 1.902 1.902 0 0 1-.592-.247.332.332 0 0 0-.413.047l-.159.16-.235-.236.157-.158a.33.33 0 0 0 .046-.412 1.909 1.909 0 0 1-.243-.593.334.334 0 0 0-.325-.26h-.227v-.333h.225a.333.333 0 0 0 .325-.26c.048-.21.131-.41.245-.592a.332.332 0 0 0-.046-.414l-.159-.159.235-.235.158.157a.336.336 0 0 0 .412.047c.183-.113.383-.196.593-.243a.334.334 0 0 0 .26-.325v-.227zm-6.241.894c-.092 0 .107-.02-.275.033-.247.068-.464.215-.617.42s-.235.454-.232.71v.478c-1.584.446-2.824 1.766-2.824 3.451 0 2.077 1.851 3.653 3.965 3.653 1.029 0 1.684.673 1.684 1.37s-.655 1.368-1.684 1.368-1.682-.671-1.682-1.368a1.14 1.14 0 0 0-.358-.861 1.168 1.168 0 0 0-.783-.291c-.279 0-.561.092-.783.291s-.363.509-.358.865c.002 1.724 1.267 2.993 2.823 3.449v.487c-.005.357.137.669.358.867s.505.291.783.291c.279 0 .561-.091.783-.291s.365-.51.36-.867v-.489c1.583-.448 2.823-1.767 2.823-3.451 0-2.077-1.851-3.653-3.966-3.653-1.028 0-1.682-.673-1.682-1.37 0-.687.638-1.343 1.645-1.362h.079c1.005.02 1.642.672 1.642 1.358-.003.355.138.663.358.861.221.199.504.291.783.291s.561-.091.782-.289c.221-.198.363-.509.359-.865-.001-1.725-1.267-2.995-2.823-3.451v-.477a1.157 1.157 0 0 0-.714-1.074 1.133 1.133 0 0 0-.445-.085zm6.408.426c-.602 0-1.096.495-1.096 1.097s.494 1.097 1.096 1.097c.602 0 1.098-.495 1.098-1.097s-.496-1.097-1.098-1.097zm-6.398.242h.004c.269 0 .482.207.478.477v.713a.333.333 0 0 0 .259.326c1.433.323 2.564 1.416 2.564 2.903l.001.007c.003.189-.055.287-.138.361a.511.511 0 0 1-.337.119.511.511 0 0 1-.337-.119c-.083-.074-.14-.173-.137-.362v-.007c0-1.093-.997-1.999-2.296-2.025H11.248c-1.302.024-2.3.933-2.3 2.029 0 1.109 1.019 2.037 2.349 2.037 1.787 0 3.3 1.307 3.3 2.986 0 1.441-1.111 2.595-2.56 2.9a.334.334 0 0 0-.265.325v.727c.003.189-.055.288-.138.362a.512.512 0 0 1-.337.12.51.51 0 0 1-.336-.12c-.083-.074-.14-.173-.138-.362v-.723a.333.333 0 0 0-.26-.325c-1.434-.321-2.564-1.416-2.564-2.902v-.008c-.003-.189.055-.288.138-.362a.512.512 0 0 1 .337-.12c.129 0 .253.045.336.12s.141.173.138.362v.008c0 1.109 1.019 2.035 2.349 2.035s2.351-.926 2.351-2.035-1.02-2.037-2.351-2.037c-1.786 0-3.298-1.307-3.298-2.986 0-1.441 1.111-2.593 2.56-2.898a.331.331 0 0 0 .264-.327v-.718a.46.46 0 0 1 .132-.339.46.46 0 0 1 .335-.143zm6.398.424c.056 0 .112.011.165.032s.1.053.14.093a.438.438 0 0 1 .127.303c0 .056-.011.112-.032.165s-.053.1-.093.14a.438.438 0 0 1-.303.127.43.43 0 0 1-.002-.86zm1.856 3.514a.334.334 0 0 0-.334.334v.596a3.587 3.587 0 0 0-.599.245l-.419-.418a.332.332 0 0 0-.472 0l-1.029 1.027a.325.325 0 0 0-.097.236.33.33 0 0 0 .097.236l.42.42c-.1.192-.182.391-.247.598h-.595a.334.334 0 0 0-.334.334v1.455a.334.334 0 0 0 .334.334h.597c.064.207.146.405.246.597l-.421.421a.332.332 0 0 0 0 .472l1.029 1.027a.332.332 0 0 0 .472 0l.42-.419c.193.1.391.183.598.247v.593a.334.334 0 0 0 .334.334H21a.334.334 0 0 0 .334-.334v-.595a3.57 3.57 0 0 0 .597-.246l.42.42a.333.333 0 0 0 .47 0l1.029-1.028a.332.332 0 0 0 0-.472l-.419-.42c.101-.191.184-.392.248-.598h.593a.334.334 0 0 0 .334-.334v-1.455a.334.334 0 0 0-.334-.334h-.595a3.595 3.595 0 0 0-.247-.599l.42-.42a.333.333 0 0 0 0-.47l-1.029-1.027a.332.332 0 0 0-.472 0l-.419.419a3.497 3.497 0 0 0-.597-.248v-.595a.334.334 0 0 0-.334-.334h-1.455zm.334.666h.788v.479a.333.333 0 0 0 .26.325c.322.073.63.2.91.376a.333.333 0 0 0 .412-.046l.337-.337.557.556-.336.337a.338.338 0 0 0-.048.413c.175.28.302.587.375.909a.333.333 0 0 0 .324.261h.481v.788h-.479a.333.333 0 0 0-.324.259c-.073.323-.2.631-.376.911a.33.33 0 0 0 .046.412l.339.339-.557.556-.336-.336a.332.332 0 0 0-.413-.047c-.28.175-.587.301-.909.373a.333.333 0 0 0-.261.324v.48h-.788v-.479a.333.333 0 0 0-.259-.324 2.934 2.934 0 0 1-.911-.377.335.335 0 0 0-.412.046l-.339.337-.557-.556.337-.337a.332.332 0 0 0 .047-.413 2.92 2.92 0 0 1-.373-.91.334.334 0 0 0-.325-.26h-.48v-.788h.479a.333.333 0 0 0 .325-.26c.073-.322.201-.63.377-.91a.333.333 0 0 0-.046-.412l-.339-.339.557-.556.337.336a.33.33 0 0 0 .412.046c.28-.175.589-.301.911-.373.074-.017.139-.058.187-.117s.073-.132.073-.207v-.481zm.393 2a1.671 1.671 0 0 0-1.666 1.667 1.674 1.674 0 0 0 1.666 1.667 1.67 1.67 0 0 0 1.667-1.667c0-.915-.752-1.667-1.667-1.667zm0 .667c.551 0 1 .449 1 1s-.449 1-1 1a1 1 0 0 1 0-2z"/></svg>