<svg xmlns="http://www.w3.org/2000/svg" viewBox="0 0 32 32"><path d="M31.064 15.51a28.966 28.966 0 0 0-6.598-6.283l4.305-4.305a1.091 1.091 0 0 0-1.516-1.569l-.027.027-4.703 4.699a14.094 14.094 0 0 0-6.526-1.745c-8.291 0-14.791 8.801-15.064 9.177a1.091 1.091 0 0 0 0 1.283 28.94 28.94 0 0 0 6.598 6.282l-4.305 4.305a1.092 1.092 0 0 0 1.516 1.57l.027-.027 4.703-4.699A14.108 14.108 0 0 0 16 25.971c8.291 0 14.791-8.801 15.064-9.177.278-.382.278-.9 0-1.283zM9.12 21.492a27.191 27.191 0 0 1-5.912-5.341C4.814 14.206 10.022 8.515 16 8.515c1.701.034 3.373.444 4.897 1.2l-1.894 1.894a5.445 5.445 0 0 0-7.549 7.549l-2.335 2.335zm9.825-6.743c.214.437.325.916.327 1.402a3.273 3.273 0 0 1-3.273 3.273 3.23 3.23 0 0 1-1.402-.327l4.347-4.347zm-5.89 2.804a3.23 3.23 0 0 1-.327-1.402 3.273 3.273 0 0 1 3.273-3.273 3.23 3.23 0 0 1 1.402.327l-4.347 4.347zM16 23.787a11.538 11.538 0 0 1-4.897-1.2l1.894-1.894a5.445 5.445 0 0 0 7.549-7.549l2.335-2.335a27.191 27.191 0 0 1 5.912 5.341c-1.606 1.945-6.814 7.636-12.792 7.636z"/></svg>