<svg xmlns="http://www.w3.org/2000/svg" viewBox="0 0 32 32"><path d="M27.5 3.5a3.5 3.5 0 0 0-3.501-3.501h-15a3.502 3.502 0 0 0-3.5 3.5v1a.498.498 0 0 0 .5.5h21a.498.498 0 0 0 .5-.5v-1zm-1 0V4h-20v-.5A2.5 2.5 0 0 1 9 1h15a2.5 2.5 0 0 1 2.5 2.5z"/><path d="M22.485.622A.503.503 0 0 0 22 0H11a.513.513 0 0 0-.489.397.503.503 0 0 0 .004.225l.31 1.242A1.499 1.499 0 0 0 12.281 3h8.438a1.501 1.501 0 0 0 1.455-1.136l.311-1.242zM21.359 1l-.155.622a.5.5 0 0 1-.485.379h-8.438a.498.498 0 0 1-.485-.379L11.64 1h9.72zm-9.86 17.5A.5.5 0 0 0 11 18H5a.498.498 0 0 0-.5.5v4A1.503 1.503 0 0 0 6 24h4a1.503 1.503 0 0 0 1.5-1.5v-4zm-.999.5v3.5a.498.498 0 0 1-.5.5H6a.498.498 0 0 1-.5-.5V19h5zm9.75 4H13.5a.498.498 0 0 0-.5.5.498.498 0 0 0 .5.5h6.75a.498.498 0 0 0 .5-.5.498.498 0 0 0-.5-.5zm-15 4a2.5 2.5 0 1 0 0 5 2.5 2.5 0 0 0 .001-5zm0 1a1.501 1.501 0 0 1 0 3 1.503 1.503 0 0 1-1.5-1.5 1.503 1.503 0 0 1 1.5-1.5zm12.25-1a2.5 2.5 0 1 0 0 5 2.5 2.5 0 0 0 .001-5zm0 1a1.503 1.503 0 0 1 1.5 1.5 1.503 1.503 0 0 1-1.5 1.5 1.503 1.503 0 0 1-1.5-1.5 1.503 1.503 0 0 1 1.5-1.5z"/><path d="M4.5 19h7a.498.498 0 0 0 .5-.5.498.498 0 0 0-.5-.5h-7a.498.498 0 0 0-.5.5.498.498 0 0 0 .5.5z"/><path d="M9.5 18.5A.498.498 0 0 0 9 18H7a.498.498 0 0 0-.5.5v1.75a1.25 1.25 0 0 0 1.25 1.25h.5a1.252 1.252 0 0 0 1.25-1.25V18.5zm-1 .5v1.25c0 .066-.027.13-.073.177s-.11.073-.177.073h-.5a.252.252 0 0 1-.251-.251v-1.25h1zm18.416 12.989a.499.499 0 0 0 .578-.346 22.976 22.976 0 0 1 3.197-6.575l.001-.001A4.502 4.502 0 0 0 27 17.995a4.502 4.502 0 0 0-4.5 4.5c0 .958.3 1.846.824 2.567a23.013 23.013 0 0 1 3.197 6.577c.08.264.28.333.395.351zm.093-2.038a24.02 24.02 0 0 0-2.868-5.466l-.006-.007a3.35 3.35 0 0 1-.636-1.982c0-1.932 1.569-3.5 3.5-3.5a3.503 3.503 0 0 1 2.872 5.5 23.974 23.974 0 0 0-2.863 5.456z"/><path d="M27 20.5a2 2 0 1 0 0 4 2 2 0 0 0 0-4zm0 1a1.002 1.002 0 0 1 .707 1.707 1.003 1.003 0 0 1-1.414 0A1 1 0 0 1 27 21.5h.001zm-7-15c-2.76 0-5 2.24-5 5s2.24 5 5 5c2.759 0 5-2.241 5-5s-2.241-5-5-5zm0 1c2.207 0 4 1.792 4 4a4.001 4.001 0 0 1-8-.001c0-2.208 1.792-4 4-4V7.5z"/><path d="M19.5 7v1a.498.498 0 0 0 .5.5.498.498 0 0 0 .5-.5V7a.498.498 0 0 0-.5-.5.498.498 0 0 0-.5.5zm3.328.965-.707.707a.501.501 0 0 0 .707.707l.707-.707a.501.501 0 0 0-.707-.707zM24.5 11h-1a.498.498 0 0 0-.5.5.498.498 0 0 0 .5.5h1a.498.498 0 0 0 .5-.5.498.498 0 0 0-.5-.5zm-.965 3.328-.707-.707a.501.501 0 0 0-.707.707l.707.707a.5.5 0 0 0 .709-.707zM19.5 15v1a.498.498 0 0 0 .5.5.498.498 0 0 0 .5-.5v-1a.498.498 0 0 0-.5-.5.498.498 0 0 0-.5.5zm-2.328-1.379-.707.707a.5.5 0 0 0 .707.709l.707-.707a.501.501 0 0 0-.707-.707zM16.5 11h-1a.498.498 0 0 0-.5.5.498.498 0 0 0 .5.5h1a.498.498 0 0 0 .5-.5.498.498 0 0 0-.5-.5zm1.378-2.328-.707-.707a.501.501 0 0 0-.707.707l.707.707a.501.501 0 0 0 .707-.707zM20 12a.5.5 0 1 0 0-1 .5.5 0 0 0 0 1zM5.5 4.5v10a.498.498 0 0 0 .5.5.498.498 0 0 0 .5-.5v-10A.498.498 0 0 0 6 4a.498.498 0 0 0-.5.5zm21 0v14a.498.498 0 0 0 .5.5.498.498 0 0 0 .5-.5v-14A.498.498 0 0 0 27 4a.498.498 0 0 0-.5.5z"/><path d="M3.928 28.5a.5.5 0 0 0 .331-.125c.274-.242.626-.376.992-.375.38 0 .727.141.992.375a.497.497 0 0 0 .331.125h6.927a.498.498 0 0 0 .5-.5V15.5a1.495 1.495 0 0 0-.926-1.385 1.503 1.503 0 0 0-.574-.114h-9a1.498 1.498 0 0 0-1.5 1.5v12.5a.498.498 0 0 0 .5.5h1.428zm-.177-1H3v-12a.506.506 0 0 1 .146-.354A.505.505 0 0 1 3.5 15h9a.506.506 0 0 1 .354.146.505.505 0 0 1 .146.354v12H6.749a2.489 2.489 0 0 0-1.5-.5 2.49 2.49 0 0 0-1.5.5z"/><path d="M16.177 28.5a.5.5 0 0 0 .331-.125c.273-.242.626-.376.991-.375.38 0 .727.141.991.375a.5.5 0 0 0 .331.125h1.678a.498.498 0 0 0 .5-.5v-4.241a1.5 1.5 0 0 0-.189-.729l-2.088-3.759a1.507 1.507 0 0 0-1.312-.771h-3.912a.498.498 0 0 0-.5.5v9a.498.498 0 0 0 .5.5h2.677zm-.176-1H14v-8h3.412a.498.498 0 0 1 .437.257l2.088 3.759a.503.503 0 0 1 .063.243V27.5h-1a2.489 2.489 0 0 0-1.5-.5 2.486 2.486 0 0 0-1.499.5zM5.25 27a2.5 2.5 0 1 0 0 5 2.5 2.5 0 0 0 .001-5zm0 1a1.501 1.501 0 0 1 0 3 1.503 1.503 0 0 1-1.5-1.5 1.503 1.503 0 0 1 1.5-1.5z"/><path d="M18.822 27.5a.495.495 0 0 0-.468.324.503.503 0 0 0 .137.552 1.504 1.504 0 0 1 .461 1.5.493.493 0 0 0 .09.431.493.493 0 0 0 .395.194h1.58a1.489 1.489 0 0 0 1.483-1.483v-.001a1.519 1.519 0 0 0-.936-1.401 1.519 1.519 0 0 0-.58-.115h-2.162zm-12.25 0a.495.495 0 0 0-.468.324.503.503 0 0 0 .137.552 1.495 1.495 0 0 1 .462 1.499.493.493 0 0 0 .089.431.497.497 0 0 0 .395.194l8.376.001a.496.496 0 0 0 .489-.399.507.507 0 0 0-.005-.226 1.505 1.505 0 0 1 .461-1.5.504.504 0 0 0 .137-.552.501.501 0 0 0-.468-.324H6.572zm-2.314.875a.504.504 0 0 0 .137-.552.501.501 0 0 0-.468-.324H2.002a1.512 1.512 0 0 0-1.062.44 1.5 1.5 0 0 0-.44 1.062v.001a1.497 1.497 0 0 0 1.495 1.495h1.317a.51.51 0 0 0 .395-.194.507.507 0 0 0 .09-.431 1.495 1.495 0 0 1 .462-1.499zM20 29.5c0-.355-.075-.694-.208-1h1.192c.137 0 .268.055.364.152s.151.228.152.364v.001c0 .128-.051.251-.142.341s-.213.141-.341.142H20zm-5-.001H7.75c0-.355-.074-.693-.208-.999h7.666a2.489 2.489 0 0 0-.209.999zm-12.25-.001h-.755a.495.495 0 0 1-.495-.495v-.002a.503.503 0 0 1 .502-.502h.956a2.504 2.504 0 0 0-.208.998z"/></svg>