<svg xmlns="http://www.w3.org/2000/svg" viewBox="0 0 32 32"><path d="M22.305 16A6.314 6.314 0 0 0 16 9.695C12.525 9.7 9.7 12.525 9.7 16s2.825 6.305 6.305 6.305c3.47 0 6.3-2.83 6.3-6.305zM10.67 16c0-2.94 2.395-5.335 5.335-5.335S21.34 13.06 21.34 16a5.343 5.343 0 0 1-5.335 5.335A5.34 5.34 0 0 1 10.67 16z"/><path d="M17.395 18.455a1.498 1.498 0 0 0 .54-1.195c0-.26-.04-.475-.125-.655a1.432 1.432 0 0 0-.335-.45c-.135-.125-.295-.225-.47-.305s-.355-.155-.54-.22c-.185-.065-.365-.13-.54-.19a2.396 2.396 0 0 1-.47-.22 1.124 1.124 0 0 1-.335-.315.829.829 0 0 1-.12-.46c0-.12.02-.23.06-.335.04-.1.11-.19.2-.26s.21-.13.355-.17c.145-.04.325-.06.53-.06.18 0 .345.02.495.06.232.061.457.149.67.26.075.04.13.06.16.06.02 0 .04-.005.055-.02.015-.01.03-.03.035-.055a.439.439 0 0 0 .02-.1c.005-.045.005-.095.005-.155 0-.045 0-.09-.005-.125s-.01-.07-.015-.095c-.005-.03-.015-.05-.025-.075a.289.289 0 0 0-.055-.07c-.025-.025-.075-.055-.145-.09s-.15-.07-.24-.095c-.09-.03-.18-.055-.28-.08s-.195-.04-.29-.05l.1-.925c0-.025-.005-.045-.01-.065s-.02-.035-.045-.05a.237.237 0 0 0-.1-.03 1.48 1.48 0 0 0-.17-.01c-.065 0-.115 0-.155.005a.388.388 0 0 0-.09.025.098.098 0 0 0-.045.045.1.1 0 0 0-.015.055l-.09.935c-.285.02-.54.07-.755.155s-.395.195-.535.33-.25.29-.32.47-.105.37-.105.58c0 .26.04.475.125.655.085.175.195.325.33.45s.29.225.465.31c.175.085.35.155.53.22s.355.13.53.19c.175.065.33.14.465.225.135.09.245.195.33.315s.125.275.125.455c0 .295-.115.53-.34.705s-.56.26-.995.26c-.372.005-.74-.07-1.08-.22-.12-.055-.22-.105-.295-.15s-.13-.065-.17-.065c-.03 0-.05.005-.07.015s-.035.03-.05.06c-.01.03-.02.065-.03.11-.005.045-.01.1-.01.17 0 .09.005.165.02.215.01.05.035.095.065.125s.085.065.15.105a2.523 2.523 0 0 0 .585.2c.125.03.265.055.41.07l-.105 1a.142.142 0 0 0 0 .065c.01.02.025.035.05.045s.06.02.1.03c.04.01.1.01.17.01.06 0 .11-.005.15-.01s.07-.015.09-.025c.02-.01.035-.025.045-.04s.015-.035.015-.055l.1-1.005a2.86 2.86 0 0 0 .835-.155 1.71 1.71 0 0 0 .66-.335z"/><path d="m31.86 23.725-5.565-5.555a.482.482 0 0 0-.53-.105.486.486 0 0 0-.299.451v1.855h-2.52a8.14 8.14 0 0 0 1.27-4.365c0-3.165-1.8-5.91-4.43-7.285l.005-4c0-.13-.05-.25-.14-.345a.489.489 0 0 0-.345-.14H6.536V2.381a.492.492 0 0 0-.299-.451.483.483 0 0 0-.53.105L.142 7.59a.498.498 0 0 0 0 .69l5.565 5.555a.498.498 0 0 0 .53.105c.18-.075.3-.25.3-.45v-1.85h2.52a8.14 8.14 0 0 0-1.27 4.365c0 3.165 1.8 5.91 4.43 7.28l.005 3.995c0 .27.215.485.485.485h12.76v1.855c0 .195.12.375.3.45a.506.506 0 0 0 .53-.105l5.565-5.555a.488.488 0 0 0 0-.685zM6.05 10.665a.482.482 0 0 0-.485.485v1.17L1.17 7.935 5.565 3.55v1.17c0 .27.215.485.485.485h12.765l-.005 3.09a8.214 8.214 0 0 0-2.815-.505 8.194 8.194 0 0 0-6.235 2.88H6.05v-.005zM8.76 16c0-3.995 3.25-7.245 7.245-7.245S23.25 12.005 23.25 16s-3.25 7.245-7.245 7.245c-4 0-7.245-3.25-7.245-7.245zm17.675 12.45v-1.17a.482.482 0 0 0-.485-.485H13.19l-.005-3.09c.88.32 1.825.505 2.815.505 2.49 0 4.725-1.12 6.23-2.875h3.72c.27 0 .485-.215.485-.485v-1.17l4.39 4.385-4.39 4.385z"/></svg>