<svg xmlns="http://www.w3.org/2000/svg" viewBox="0 0 32 32"><path d="M13.533 22.2c0-.867-.333-1.667-.933-2.333l-4.133-4.133c-.2-.2-.533-.267-.8-.2s-.533.333-.6.667c-.133.667-.467 2.133-.133 3.333l.067.133 1.467 1.467-.467.067a2.42 2.42 0 0 1-1.733-.733l-1.733-1.733v-4.067a3 3 0 0 0-1.8-2.733c-.533-.2-1.133-.333-1.667-.333H.401v8.133c0 .667.267 1.267.733 1.733l4.8 4.8v.2h-1.8v5.067h10.933v-5.067h-1.533v-4.267zM2 20.6c-.2-.2-.333-.467-.333-.8v-6.733c.133.067.333.067.467.133.6.267 1 .867 1 1.467v4.667l2.133 2.133A3.89 3.89 0 0 0 8 22.6l1.667-.267c.267-.067.533-.267.6-.533s0-.6-.2-.8l-2-2c-.133-.533-.067-1.133 0-1.667l3.467 3.467c.4.4.6.867.6 1.4v4.4h-5v-.2c0-.4-.133-.733-.4-1l-4.733-4.8zm11.667 7.333v2.4h-8.2v-2.4h8.2zM29.333 12a3 3 0 0 0-1.8 2.733V18.8L25.8 20.533a2.42 2.42 0 0 1-1.733.733l-.467-.067 1.467-1.467.067-.133c.333-1.267.067-2.667-.133-3.4-.067-.267-.267-.533-.6-.6-.267-.067-.6 0-.8.2l-4.133 4.133c-.6.6-.933 1.467-.933 2.333v4.4h-1.533v5.067h10.933v-5.067h-1.733v-.267l4.8-4.8a2.42 2.42 0 0 0 .733-1.733v-8.2h-.667c-.667 0-1.2.133-1.733.333zm-2.8 15.933v2.4h-8.2v-2.4h8.2zm3.8-8.133c0 .333-.133.6-.333.8l-4.8 4.8c-.267.267-.4.6-.4 1v.2h-5v-4.4c0-.533.2-1 .6-1.4l3.467-3.467c.067.533.133 1.133 0 1.667l-2 2c-.2.2-.267.533-.2.8s.333.467.6.533l1.6.267H24c1.067 0 2-.4 2.733-1.133l2.133-2.133v-4.6c0-.667.4-1.267 1-1.467.133-.067.333-.133.467-.133v6.667zM16.2 4.733c-2.4-.133-4.4 1.733-4.533 4.133-.067 1.133.333 2.267 1.133 3.133s1.867 1.333 3 1.4h.2c2.267 0 4.2-1.8 4.333-4.133.133-2.4-1.733-4.4-4.133-4.533zm-.333 7.334c-.8-.067-1.533-.4-2.067-1S13 9.734 13 8.934a3.006 3.006 0 0 1 3-2.867h.133C17.8 6.134 19.066 7.534 19 9.2s-1.467 2.933-3.133 2.867z"/><path d="M24.733 10.467V7.534L23 7.134c-.133-.6-.4-1.133-.733-1.733l.933-1.533-2.133-2.067-1.533.933c-.533-.333-1.133-.533-1.733-.667l-.4-1.733h-2.933l-.4 1.733c-.6.133-1.133.4-1.733.733l-1.533-.933-2 2.133.933 1.533c-.333.533-.533 1.133-.733 1.733l-1.733.4v2.933l1.733.4c.133.6.4 1.133.733 1.733l-.933 1.533 2.133 2.067 1.533-.933c.533.333 1.133.533 1.733.667l.4 1.733h2.933l.4-1.733c.6-.133 1.133-.4 1.733-.733l1.533.933 2.067-2.133-.933-1.533c.333-.533.533-1.133.667-1.733l1.733-.4zM21.867 9.8l-.067.4c-.133.733-.4 1.4-.8 2.067l-.2.333.8 1.333-.6.6-1.333-.8-.333.267c-.6.4-1.333.733-2 .867l-.4.067-.333 1.533h-.867l-.4-1.533-.4-.067c-.733-.133-1.4-.4-2.067-.8l-.333-.2-1.333.8-.667-.667.8-1.333-.267-.333c-.4-.6-.733-1.333-.867-2l-.067-.4L8.6 9.601v-.867l1.533-.4.067-.4c.133-.733.4-1.4.8-2.067l.2-.333-.8-1.333.6-.6 1.333.8.333-.267c.6-.4 1.333-.733 2-.867l.4-.067.333-1.533h.867l.4 1.533.4.067c.733.133 1.4.4 2.067.8l.333.2 1.333-.8.6.6-.8 1.333.267.333c.4.6.733 1.333.867 2l.067.4 1.533.333v.867l-1.467.467z"/></svg>