<svg xmlns="http://www.w3.org/2000/svg" viewBox="0 0 32 32"><path d="m15.976.74-.722.81c-3.06 3.436-7.308 5.058-12.376 5.676L2 7.332v.886c0 5.16 1.092 10.166 3.352 14.27s5.728 7.306 10.362 8.688l.298.09.296-.102C25.264 28.27 30 18.842 30 8.218v-.796l-.778-.184c-4.93-1.136-9.476-2.516-12.496-5.706l-.75-.794V.74zm.048 2.66c3.238 3.024 7.49 4.48 11.894 5.532-.21 9.562-4.394 17.538-11.926 20.164-3.922-1.27-6.884-3.94-8.886-7.574-1.952-3.54-2.92-7.964-3.024-12.564 4.63-.702 8.764-2.36 11.94-5.558h.002zm5.316 8.562-7.294 6.386-3.34-3.336-1.414 1.414 4.66 4.66 8.708-7.618-1.32-1.506z"/></svg>