<svg xmlns="http://www.w3.org/2000/svg" viewBox="0 0 32 32"><path d="M9.451 20.792 6.379 17.72a3.163 3.163 0 0 0-2.25-.932H2.001a.636.636 0 0 0 0 1.272h2.128c.501 0 .994.204 1.349.559l1.987 1.987H2.001a.636.636 0 0 0 0 1.272h7a.637.637 0 0 0 .451-1.087zM9 23.788a.636.636 0 0 0-.636.636v1.909a.637.637 0 0 1-.636.636H3.91a.637.637 0 0 1-.636-.636v-2.545a.636.636 0 0 0-1.272 0v2.545c0 1.053.857 1.909 1.909 1.909h3.818a1.91 1.91 0 0 0 1.909-1.909v-1.909a.636.636 0 0 0-.636-.636z"/><path d="M28.385 13.042c-1.754-.918-5.69-1.345-12.385-1.345s-10.631.428-12.385 1.345C1.617 14.086.727 15.829.727 18.697c0 2.757.631 5.154.658 5.255a.635.635 0 0 0 .615.472h5.577l2.411 1.205a.632.632 0 0 0 .285.067h11.455a.637.637 0 0 0 .284-.067l2.412-1.205h5.577a.635.635 0 0 0 .615-.472c.027-.101.658-2.498.658-5.255 0-2.867-.89-4.611-2.888-5.655zm1.112 10.109h-5.223a.639.639 0 0 0-.285.067l-2.412 1.205H10.423l-2.411-1.205a.632.632 0 0 0-.285-.067H2.504C2.327 22.34 2 20.589 2 18.696c0-2.396.639-3.709 2.203-4.527 1.525-.797 5.493-1.2 11.797-1.2s10.272.403 11.797 1.2C29.361 14.987 30 16.3 30 18.696c0 1.893-.327 3.644-.503 4.455z"/><path d="M30 20.606h-5.464l1.985-1.987a1.926 1.926 0 0 1 1.35-.559h2.128a.637.637 0 0 0 0-1.272h-2.128c-.85 0-1.648.331-2.25.932l-3.072 3.072A.636.636 0 0 0 23 21.879h7a.637.637 0 0 0 0-1.272zM23.577 17.154a.639.639 0 0 0-.577-.367H9a.636.636 0 0 0-.489 1.044l3.182 3.818c.121.145.3.229.489.229h7.636a.638.638 0 0 0 .489-.229l3.182-3.818a.636.636 0 0 0 .088-.677zm-4.058 3.452H12.48l-2.122-2.545h11.283l-2.122 2.545zM28.675 13.353c-.724-1.665-3.148-7.151-3.99-7.868-1.05-.892-4.058-1.424-8.049-1.424h-1.273c-3.991 0-6.999.532-8.049 1.423-.843.717-3.267 6.203-3.99 7.868a.637.637 0 0 0 1.168.507c1.437-3.308 3.195-6.983 3.646-7.405.49-.416 2.563-1.121 7.224-1.121h1.273c4.661 0 6.734.705 7.221 1.119.454.424 2.212 4.098 3.649 7.407a.636.636 0 0 0 1.168-.506zM29.363 23.151a.636.636 0 0 0-.636.636v2.545a.637.637 0 0 1-.636.636h-3.818a.637.637 0 0 1-.636-.636v-1.909a.636.636 0 0 0-1.272 0v1.909a1.91 1.91 0 0 0 1.909 1.909h3.818a1.911 1.911 0 0 0 1.909-1.909v-2.545a.636.636 0 0 0-.636-.636z"/></svg>