<svg xmlns="http://www.w3.org/2000/svg" viewBox="0 0 8.467 8.467"><g color="#000" font-family="sans-serif" font-weight="400"><path d="M1.97 13A1 1 0 0 0 1 14l.012 16.523 13.238-9.837-11.709-7.528a1 1 0 0 0-.57-.158Zm28 0a1 1 0 0 0-.511.158L17.75 20.686 31 30.523V14a1 1 0 0 0-1.03-1zm-14.824 8.262L2.166 31h27.666L16.85 21.266l-.85.545ZM15.986 1.004a1.013 1.013 0 0 0-.638.236L2.709 12.078 16 20.623l13.291-8.545L16.654 1.24a.993.993 0 0 0-.668-.236z" overflow="visible" style="line-height:normal;font-variant-ligatures:normal;font-variant-position:normal;font-variant-caps:normal;font-variant-numeric:normal;font-variant-alternates:normal;font-feature-settings:normal;text-indent:0;text-align:start;text-decoration-line:none;text-decoration-style:solid;text-decoration-color:#000;text-transform:none;text-orientation:mixed;white-space:normal;shape-padding:0;isolation:auto;mix-blend-mode:normal;solid-color:#000;solid-opacity:1" transform="scale(.26458)"/></g></svg>