<svg xmlns="http://www.w3.org/2000/svg" viewBox="0 0 32 32"><path d="M28.05 16.067h-.221c.102-.684.154-1.379.154-2.075C27.983 6.277 21.706 0 13.991 0S-.001 6.277-.001 13.992c0 7.715 6.277 13.992 13.992 13.992.696 0 1.39-.052 2.075-.154v3.233a.938.938 0 0 0 1.458.78l2.776-1.851h7.75a3.955 3.955 0 0 0 3.95-3.95v-6.025a3.955 3.955 0 0 0-3.95-3.95zM13.992 26.108c-6.681 0-12.117-5.435-12.117-12.117S7.311 1.874 13.992 1.874c6.681 0 12.117 5.436 12.117 12.117 0 .698-.06 1.393-.178 2.075h-5.914a3.947 3.947 0 0 0-3.95 3.95v5.914c-.682.118-1.377.178-2.075.178zm16.133-.066a2.078 2.078 0 0 1-2.075 2.075h-8.033a.943.943 0 0 0-.52.157l-1.555 1.037v-9.294c0-1.147.928-2.075 2.075-2.075h8.033c1.144 0 2.075.931 2.075 2.075v6.025z"/><path d="M27.046 20.083h-6.025a.938.938 0 0 0 0 1.875h6.025a.938.938 0 0 0 0-1.875zM24.033 24.1h-3.012a.938.938 0 0 0 0 1.875h3.012a.938.938 0 1 0 0-1.875zM13.992 4.016a.938.938 0 0 0-.938.938v8.1H7.967a.938.938 0 0 0 0 1.876h6.025c.518 0 .938-.42.938-.938V4.954a.938.938 0 0 0-.938-.938z"/></svg>